# Blender 4.0.0
# www.blender.org
mtllib wall.mtl
o Cube
v 0.500000 0.500000 -0.500000
v 0.500000 0.500000 0.500000
v -0.500000 0.500000 -0.500000
v -0.500000 0.500000 0.500000
v 0.600000 0.000000 -0.600000
v -0.600000 -0.000000 0.600000
v 0.600000 0.000000 0.600000
v -0.600000 -0.000000 -0.600000
v -0.000000 0.600000 0.600000
v 0.600000 0.600000 0.000000
v -0.600000 0.600000 -0.000000
v 0.000000 0.600000 -0.600000
v -0.000000 0.800000 -0.000000
v 0.000000 0.000000 0.800000
v -0.800000 0.000000 -0.000000
v 0.800000 0.000000 -0.000000
v 0.000000 0.000000 -0.800000
vn 0.3066 0.9197 -0.2453
vn -0.2453 0.9197 -0.3066
vn -0.2453 0.9197 0.3066
vn 0.3066 0.9197 0.2453
vn 0.3066 0.2453 0.9197
vn -0.3066 0.2453 0.9197
vn -0.9197 0.2453 0.3066
vn -0.9197 0.2453 -0.3066
vn 0.9197 0.2453 -0.3066
vn 0.9197 0.2453 0.3066
vn -0.3066 0.2453 -0.9197
vn 0.3066 0.2453 -0.9197
vn 0.2453 0.9197 -0.3066
vn -0.3066 0.9197 -0.2453
vn -0.3066 0.9197 0.2453
vn 0.2453 0.9197 0.3066
vn 0.2453 0.3066 0.9197
vn -0.2453 0.3066 0.9197
vn -0.9197 0.3066 0.2453
vn -0.9197 0.3066 -0.2453
vn 0.9197 0.3066 -0.2453
vn 0.9197 0.3066 0.2453
vn -0.2453 0.3066 -0.9197
vn 0.2453 0.3066 -0.9197
vt 0.886529 0.432026
vt 0.502000 0.963827
vt 0.502000 0.508932
vt 0.904350 0.402488
vt 0.503906 1.003326
vt 0.503906 0.482577
vt 0.500000 0.995026
vt 0.098909 0.429070
vt 0.500000 0.509289
vt 0.117471 0.432026
vt 0.901091 0.429070
vt 0.500000 0.027979
vt 0.981310 0.027979
vt 0.018691 0.027979
vt 0.841808 0.429766
vt 0.494681 0.082639
vt 0.911234 0.082639
vt 0.147553 0.429766
vt 0.078128 0.082639
vt 0.502000 0.047497
vt 0.963434 0.047497
vt 0.040566 0.047497
vt 0.503906 0.002044
vt 0.984439 0.002044
vt 0.103462 0.402488
vt 0.023374 0.002044
vt 0.494681 0.499192
vt 0.494681 0.996620
s 0
usemtl South
f 13/7/3 4/8/3 9/9/3
f 2/11/5 14/12/5 7/13/5
f 14/12/6 4/8/6 6/14/6
f 13/7/16 9/9/16 2/11/16
f 2/11/17 9/9/17 14/12/17
f 14/12/18 9/9/18 4/8/18
usemtl North
f 3/4/2 13/5/2 12/6/2
f 3/4/11 17/23/11 8/24/11
f 17/23/12 1/25/12 5/26/12
f 1/25/13 12/6/13 13/5/13
f 3/4/23 12/6/23 17/23/23
f 17/23/24 12/6/24 1/25/24
usemtl East
f 1/1/1 13/2/1 10/3/1
f 13/2/4 2/10/4 10/3/4
f 1/1/9 16/20/9 5/21/9
f 16/20/10 2/10/10 7/22/10
f 1/1/21 10/3/21 16/20/21
f 16/20/22 10/3/22 2/10/22
usemtl West
f 4/15/7 15/16/7 6/17/7
f 15/16/8 3/18/8 8/19/8
f 3/18/14 11/27/14 13/28/14
f 13/28/15 11/27/15 4/15/15
f 4/15/19 11/27/19 15/16/19
f 15/16/20 11/27/20 3/18/20
