# Blender 4.0.0
# www.blender.org
mtllib wall.mtl
o Cube
v 5.000000 5.000000 -5.000000
v 5.000000 5.000000 5.000000
v -5.000000 5.000000 -5.000000
v -5.000000 5.000000 5.000000
v 6.000000 0.000000 -6.000000
v -6.000000 -0.000000 6.000000
v 6.000000 0.000000 6.000000
v -6.000000 -0.000000 -6.000000
v -0.000000 6.000000 6.000000
v 6.000000 6.000000 0.000000
v -6.000000 6.000000 -0.000000
v 0.000000 6.000000 -6.000000
v -0.000000 8.000000 -0.000000
v 0.000000 0.000000 8.000000
v -8.000000 0.000000 -0.000000
v 8.000000 0.000000 -0.000000
v 0.000000 0.000000 -8.000000
vn 0.3066 0.9197 -0.2453
vn -0.2453 0.9197 -0.3066
vn -0.2453 0.9197 0.3066
vn 0.3066 0.9197 0.2453
vn 0.3066 0.2453 0.9197
vn -0.3066 0.2453 0.9197
vn -0.9197 0.2453 0.3066
vn -0.9197 0.2453 -0.3066
vn 0.9197 0.2453 -0.3066
vn 0.9197 0.2453 0.3066
vn -0.3066 0.2453 -0.9197
vn 0.3066 0.2453 -0.9197
vn 0.2453 0.9197 -0.3066
vn -0.3066 0.9197 -0.2453
vn -0.3066 0.9197 0.2453
vn 0.2453 0.9197 0.3066
vn 0.2453 0.3066 0.9197
vn -0.2453 0.3066 0.9197
vn -0.9197 0.3066 0.2453
vn -0.9197 0.3066 -0.2453
vn 0.9197 0.3066 -0.2453
vn 0.9197 0.3066 0.2453
vn -0.2453 0.3066 -0.9197
vn 0.2453 0.3066 -0.9197
vt 0.896292 0.405549
vt 0.496454 0.980692
vt 0.496454 0.485516
vt 0.902889 0.406685
vt 0.500798 1.001824
vt 0.500798 0.487104
vt 0.493772 1.000377
vt 0.119996 0.401731
vt 0.493772 0.476486
vt 0.096616 0.405549
vt 0.867549 0.401731
vt 0.493772 0.027955
vt 0.942304 0.027955
vt 0.045241 0.027955
vt 0.879308 0.386616
vt 0.496454 0.005114
vt 0.955879 0.005114
vt 0.113600 0.386616
vt 0.037029 0.005114
vt 0.496454 0.005711
vt 0.976259 0.005711
vt 0.016648 0.005711
vt 0.500798 0.004594
vt 0.983307 0.004594
vt 0.098706 0.406685
vt 0.018288 0.004594
vt 0.496454 0.462916
vt 0.496454 1.001635
s 0
usemtl South
f 13/7/3 4/8/3 9/9/3
f 2/11/5 14/12/5 7/13/5
f 14/12/6 4/8/6 6/14/6
f 13/7/16 9/9/16 2/11/16
f 2/11/17 9/9/17 14/12/17
f 14/12/18 9/9/18 4/8/18
usemtl North
f 3/4/2 13/5/2 12/6/2
f 3/4/11 17/23/11 8/24/11
f 17/23/12 1/25/12 5/26/12
f 1/25/13 12/6/13 13/5/13
f 3/4/23 12/6/23 17/23/23
f 17/23/24 12/6/24 1/25/24
usemtl East
f 1/1/1 13/2/1 10/3/1
f 13/2/4 2/10/4 10/3/4
f 1/1/9 16/20/9 5/21/9
f 16/20/10 2/10/10 7/22/10
f 1/1/21 10/3/21 16/20/21
f 16/20/22 10/3/22 2/10/22
usemtl West
f 4/15/7 15/16/7 6/17/7
f 15/16/8 3/18/8 8/19/8
f 3/18/14 11/27/14 13/28/14
f 13/28/15 11/27/15 4/15/15
f 4/15/19 11/27/19 15/16/19
f 15/16/20 11/27/20 3/18/20
