# Blender 4.0.1
# www.blender.org
mtllib wall.mtl
o Cube
v 5.000000 5.000000 -5.000000
v 5.000000 5.000000 5.000000
v -5.000000 5.000000 -5.000000
v -5.000000 5.000000 5.000000
v 6.000000 0.000000 -6.000000
v -6.000000 -0.000000 6.000000
v 6.000000 0.000000 6.000000
v -6.000000 -0.000000 -6.000000
v -0.000000 6.000000 6.000000
v 6.000000 6.000000 0.000000
v -6.000000 6.000000 -0.000000
v 0.000000 6.000000 -6.000000
v -0.000000 8.000000 -0.000000
v 0.000000 0.000000 8.000000
v -8.000000 0.000000 -0.000000
v 8.000000 0.000000 -0.000000
v 0.000000 0.000000 -8.000000
vn 0.3066 0.9197 -0.2453
vn -0.2453 0.9197 -0.3066
vn -0.2453 0.9197 0.3066
vn 0.3066 0.9197 0.2453
vn 0.3066 0.2453 0.9197
vn -0.3066 0.2453 0.9197
vn -0.9197 0.2453 0.3066
vn -0.9197 0.2453 -0.3066
vn 0.9197 0.2453 -0.3066
vn 0.9197 0.2453 0.3066
vn -0.3066 0.2453 -0.9197
vn 0.3066 0.2453 -0.9197
vn 0.2453 0.9197 -0.3066
vn -0.3066 0.9197 -0.2453
vn -0.3066 0.9197 0.2453
vn 0.2453 0.9197 0.3066
vn 0.2453 0.3066 0.9197
vn -0.2453 0.3066 0.9197
vn -0.9197 0.3066 0.2453
vn -0.9197 0.3066 -0.2453
vn 0.9197 0.3066 -0.2453
vn 0.9197 0.3066 0.2453
vn -0.2453 0.3066 -0.9197
vn 0.2453 0.3066 -0.9197
vt 0.900054 0.406673
vt 0.498227 1.001827
vt 0.498227 0.487039
vt 0.396708 0.105243
vt 0.997546 0.505687
vt 0.476797 0.505687
vt 0.541836 1.006028
vt 0.319147 0.450394
vt 0.541836 0.539470
vt 0.096399 0.406673
vt 0.764525 0.450394
vt 0.541836 0.005016
vt 0.809063 0.005016
vt 0.274610 0.005016
vt 0.406366 0.108166
vt 0.003474 0.511058
vt 0.003474 0.027588
vt 0.406367 0.913951
vt 0.003474 0.994529
vt 0.498227 0.004846
vt 0.980420 0.004846
vt 0.016034 0.004846
vt 0.397909 0.110044
vt 0.002266 0.505686
vt 0.002266 0.030915
vt 0.397909 0.901329
vt 0.002266 0.980458
vt 0.396708 0.906130
vt 0.486945 0.511059
vt 1.000072 0.511059
vt 0.477038 0.505687
s 0
usemtl South
f 13/7/3 4/8/3 9/9/3
f 2/11/5 14/12/5 7/13/5
f 14/12/6 4/8/6 6/14/6
f 13/7/16 9/9/16 2/11/16
f 2/11/17 9/9/17 14/12/17
f 14/12/18 9/9/18 4/8/18
usemtl North
f 3/4/2 13/5/2 12/6/2
f 3/23/11 17/24/11 8/25/11
f 17/24/12 1/26/12 5/27/12
f 1/28/13 12/6/13 13/5/13
f 3/23/23 12/31/23 17/24/23
f 17/24/24 12/31/24 1/26/24
usemtl East
f 1/1/1 13/2/1 10/3/1
f 13/2/4 2/10/4 10/3/4
f 1/1/9 16/20/9 5/21/9
f 16/20/10 2/10/10 7/22/10
f 1/1/21 10/3/21 16/20/21
f 16/20/22 10/3/22 2/10/22
usemtl West
f 4/15/7 15/16/7 6/17/7
f 15/16/8 3/18/8 8/19/8
f 3/18/14 11/29/14 13/30/14
f 13/30/15 11/29/15 4/15/15
f 4/15/19 11/29/19 15/16/19
f 15/16/20 11/29/20 3/18/20
